<!-- Reddit Icon -->
<svg xmlns="http://www.w3.org/2000/svg" viewBox="0 0 24 24" fill="currentColor"><path d="M24 12c0-6.627-5.373-12-12-12S0 5.373 0 12c0 6.627 5.373 12 12 12s12-5.373 12-12zm-6.406-1.292c.293-.293.293-.768 0-1.061a.75.75 0 0 0-1.061 0c-.293.293-.293.768 0 1.061a.75.75 0 0 0 1.061 0zm-7.188 0a.75.75 0 0 0 0-1.061.75.75 0 0 0-1.061 0c-.293.293-.293.768 0 1.061a.75.75 0 0 0 1.061 0zm7.594 2.292c0 2.485-2.686 4.5-6 4.5s-6-2.015-6-4.5c0-.276.224-.5.5-.5s.5.224.5.5c0 1.933 2.239 3.5 5 3.5s5-1.567 5-3.5c0-.276.224-.5.5-.5s.5.224.5.5zm-6.5 1.5c0 .828.895 1.5 2 1.5s2-.672 2-1.5-.895-1.5-2-1.5-2 .672-2 1.5zm2-10c.552 0 1 .448 1 1s-.448 1-1 1-1-.448-1-1 .448-1 1-1z"/></svg>
